<?xml version="1.0" encoding="UTF-8"?>
<!-- Generator: visioncortex VTracer 0.6.2 -->
<svg version="1.1" xmlns="http://www.w3.org/2000/svg" width="1280" height="353">
<path d="M0 0 C1.13846375 0.00406357 1.13846375 0.00406357 2.29992676 0.00820923 C14.46788472 0.07382233 25.95268626 1.01026978 37.6875 4.4375 C38.34476074 4.61941895 39.00202148 4.80133789 39.67919922 4.98876953 C62.33204513 11.36255243 82.53293212 23.51818453 99.6875 39.4375 C100.2026416 39.90881348 100.7177832 40.38012695 101.24853516 40.86572266 C128.66125237 66.16638461 143.96825599 99.6365593 147.6875 136.4375 C142.69315839 139.41285245 137.75771667 141.08504491 132.11328125 142.39453125 C131.37427582 142.56690811 130.63527039 142.73928497 129.87387085 142.91688538 C120.10627344 145.11434299 110.1914604 146.38104991 100.27685547 147.71655273 C89.17676803 149.22533367 78.50995694 151.31548066 67.72216797 154.35375977 C58.55668239 156.88104474 58.55668239 156.88104474 55.22265625 155.1796875 C54.40667969 154.56351563 53.59070313 153.94734375 52.75 153.3125 C46.10088918 148.74920614 39.35607561 146.73549067 31.6875 144.4375 C29.68524401 143.77763987 27.68442089 143.11333387 25.6875 142.4375 C28.39961643 138.91071742 32.19841168 138.1256316 36.25 136.8125 C44.92591769 133.77441221 52.0122569 129.52287202 56.421875 121.140625 C59.37960311 112.48653163 58.9412099 101.87421661 54.93359375 93.609375 C54.52238281 92.89265625 54.11117187 92.1759375 53.6875 91.4375 C53.28660156 90.72078125 52.88570312 90.0040625 52.47265625 89.265625 C47.28716579 81.26944841 39.21364677 77.75017974 30.13061523 75.80151367 C20.33333957 73.8502289 10.48744226 73.95782298 0.53515625 73.92578125 C-1.46123836 73.90889679 -3.45762259 73.89074163 -5.45399475 73.87138367 C-10.65697989 73.82428612 -15.85992293 73.79421819 -21.06304932 73.76794434 C-26.39302892 73.73793353 -31.72286389 73.6914748 -37.05273438 73.64648438 C-47.47257995 73.56091032 -57.89245568 73.4933632 -68.3125 73.4375 C-68.3125 74.0975 -68.3125 74.7575 -68.3125 75.4375 C-67.73242188 75.39109375 -67.15234375 75.3446875 -66.5546875 75.296875 C-59.54482793 74.9729871 -56.25240267 76.81542465 -51 81.5 C-48.28578962 84.61631562 -48.18555686 87.34577017 -48.17205811 91.31355286 C-48.16634796 92.31870438 -48.16063782 93.3238559 -48.15475464 94.35946655 C-48.15307785 96.01228134 -48.15307785 96.01228134 -48.15136719 97.69848633 C-48.14391983 99.44032951 -48.14391983 99.44032951 -48.13632202 101.21736145 C-48.12168831 105.06809069 -48.1148964 108.91877874 -48.109375 112.76953125 C-48.1050775 114.76625359 -48.10077948 116.76297593 -48.0964005 118.75969809 C-48.08458969 124.32415067 -48.07705226 129.88859327 -48.0736053 135.45305711 C-48.06912612 142.64390423 -48.05158374 149.83456111 -48.0226047 157.02535039 C-48.00097008 162.58724601 -47.99090006 168.14908818 -47.98956418 173.71102542 C-47.98851735 177.03120336 -47.98118537 180.3511619 -47.96474457 183.6713047 C-47.94770376 187.37712669 -47.94955986 191.08248488 -47.95605469 194.78833008 C-47.9468399 195.88413391 -47.93762512 196.97993774 -47.9281311 198.10894775 C-47.95833808 203.60675429 -48.08281056 207.75420231 -51.3125 212.4375 C-56.88312097 216.75757341 -61.40782193 216.93763765 -68.3125 216.4375 C-67.9825 217.4275 -67.6525 218.4175 -67.3125 219.4375 C-50.1525 219.7675 -32.9925 220.0975 -15.3125 220.4375 C-16.19494517 224.84972583 -17.38091633 228.20617642 -19.125 232.3125 C-27.24020165 252.08904184 -28.68829816 271.34366008 -28.3125 292.4375 C-33.43932831 295.00091415 -43.78414462 289.96240579 -49.23046875 288.18359375 C-74.4558307 279.52447265 -98.81676647 262.48749039 -115.3125 241.4375 C-115.71146484 240.92912598 -116.11042969 240.42075195 -116.52148438 239.89697266 C-129.17037639 223.62421925 -138.09216679 206.49512501 -144.0625 186.75 C-144.36075684 185.77172241 -144.36075684 185.77172241 -144.66503906 184.77368164 C-148.09258741 172.89631535 -148.71761246 161.20983975 -148.6875 148.9375 C-148.68728851 148.14235992 -148.68707703 147.34721985 -148.68685913 146.52798462 C-148.65388417 134.09861116 -147.82033057 122.42673243 -144.3125 110.4375 C-143.97347656 109.18710938 -143.63445312 107.93671875 -143.28515625 106.6484375 C-131.79042943 68.44176543 -105.26250932 36.36588841 -70.3125 17.4375 C-61.75863822 12.89326093 -53.02739541 9.11728026 -43.8125 6.125 C-43.11479492 5.89466064 -42.41708984 5.66432129 -41.69824219 5.42700195 C-28.01249877 1.22537388 -14.23840002 -0.12033501 0 0 Z M59.6875 106.4375 C59.6875 108.7475 59.6875 111.0575 59.6875 113.4375 C60.0175 113.4375 60.3475 113.4375 60.6875 113.4375 C60.6875 111.1275 60.6875 108.8175 60.6875 106.4375 C60.3575 106.4375 60.0275 106.4375 59.6875 106.4375 Z M-147.3125 130.4375 C-146.3125 132.4375 -146.3125 132.4375 -146.3125 132.4375 Z M-147.3125 164.4375 C-146.3125 166.4375 -146.3125 166.4375 -146.3125 166.4375 Z M-146.3125 171.4375 C-145.3125 173.4375 -145.3125 173.4375 -145.3125 173.4375 Z " fill="#BA1C2B" transform="translate(176.3125,27.5625)"/>
<path d="M0 0 C1.18480957 -0.00708481 2.36961914 -0.01416962 3.59033203 -0.02146912 C5.5501577 -0.01775299 5.5501577 -0.01775299 7.54957581 -0.01396179 C8.93415096 -0.01830715 10.3187237 -0.02348971 11.70329285 -0.02944946 C15.46981162 -0.04287002 19.23623024 -0.04341474 23.00276828 -0.04088616 C26.14404903 -0.03981847 29.28530935 -0.04469465 32.42658573 -0.04949158 C39.83592471 -0.06059743 47.245213 -0.0610182 54.65455627 -0.05497742 C62.30493549 -0.04893614 69.95513086 -0.06125001 77.6054787 -0.08254749 C84.16773162 -0.10014591 90.72992593 -0.10616762 97.29220158 -0.10290974 C101.21421463 -0.10109385 105.13609656 -0.10376328 109.0580883 -0.11762428 C112.7459672 -0.13016948 116.43355894 -0.12829025 120.12143326 -0.11521339 C122.12352491 -0.11170744 124.12562519 -0.12305002 126.12768555 -0.13478088 C127.31531494 -0.12776657 128.50294434 -0.12075226 129.7265625 -0.11352539 C131.2781917 -0.113777 131.2781917 -0.113777 132.86116695 -0.1140337 C135.77089168 0.31095806 136.65508555 0.97337521 138.42677307 3.26069641 C138.09677307 4.25069641 137.76677307 5.24069641 137.42677307 6.26069641 C136.23181213 6.31677063 136.23181213 6.31677063 135.01271057 6.37397766 C126.69698859 6.68308839 126.69698859 6.68308839 119.42677307 10.26069641 C117.16810335 16.14363553 117.14225919 21.70353069 117.16798401 27.95014954 C117.16447937 29.00306686 117.16097473 30.05598419 117.15736389 31.14080811 C117.14858914 34.60792204 117.15438079 38.07483054 117.16114807 41.54194641 C117.1598002 43.95897969 117.15785865 46.3760127 117.15534973 48.79304504 C117.15240423 53.85341478 117.15667773 58.91371381 117.16603088 63.97407532 C117.17742499 70.45375955 117.17086246 76.93327808 117.15888596 83.41295624 C117.15165192 88.40241235 117.1539624 93.39182932 117.15914154 98.38128662 C117.16047376 100.7702537 117.15884532 103.15922436 117.15418243 105.54818726 C117.14909193 108.88930144 117.15686317 112.23014891 117.16798401 115.57124329 C117.16393555 116.55430954 117.15988708 117.53737579 117.15571594 118.55023193 C117.18805028 123.80574583 117.44184026 128.35581996 119.42677307 133.26069641 C122.99265625 134.44932414 126.27471332 134.46063284 129.98927307 134.49897766 C131.10906555 134.51108528 131.10906555 134.51108528 132.2514801 134.5234375 C133.83511546 134.53726626 135.41878048 134.54799383 137.00245667 134.55586243 C138.60443501 134.56731665 140.20637719 134.58766313 141.80812073 134.61738586 C153.33302086 134.83107523 163.80091768 134.78104409 172.80177307 126.57319641 C177.65688253 121.16659379 180.59855174 115.52878653 183.14552307 108.75679016 C183.60269714 107.54321838 183.60269714 107.54321838 184.06910706 106.30513 C184.67558169 104.66930588 185.26666239 103.02767979 185.84107971 101.38032532 C186.11814758 100.62026184 186.39521545 99.86019836 186.68067932 99.07710266 C186.92117004 98.39075745 187.16166077 97.70441223 187.40943909 96.99726868 C188.73392813 94.73638781 189.97752204 94.10994017 192.42677307 93.26069641 C193.08677307 93.59069641 193.74677307 93.92069641 194.42677307 94.26069641 C194.50984228 100.26504269 194.255441 106.05517188 193.55177307 112.01460266 C193.46298889 112.80092575 193.37420471 113.58724884 193.2827301 114.3973999 C193.00210517 116.87322757 192.71456975 119.34819326 192.42677307 121.82319641 C192.23360417 123.51650331 192.04089179 125.20986235 191.84864807 126.90327454 C191.37995691 131.02303588 190.90507276 135.14204002 190.42677307 139.26069641 C192.3233445 139.22742323 194.21929628 139.15777318 196.11427307 139.07319641 C197.17001526 139.03839172 198.22575745 139.00358704 199.31349182 138.96772766 C203.57524459 137.99987666 204.81827698 136.78904571 207.42677307 133.26069641 C208.16383682 129.4594466 208.07883988 125.71002363 208.02613831 121.84858704 C208.03008102 120.69521347 208.03402374 119.5418399 208.03808594 118.35351562 C208.0447989 114.54088418 208.01562446 110.72944974 207.98536682 106.91694641 C207.98111681 104.26804276 207.97863729 101.61919237 207.978302 98.97029114 C207.97367699 93.41866347 207.95005718 87.86737923 207.91383362 82.31587219 C207.87210176 75.90323467 207.85451858 69.49090627 207.85121387 63.07814074 C207.84795749 56.90206602 207.83316873 50.72608444 207.81122017 44.55004883 C207.802336 41.92498405 207.79560695 39.29991108 207.79105949 36.67483521 C207.78202275 33.00735183 207.75963593 29.34019955 207.73316956 25.67280579 C207.73250488 24.58589951 207.73184021 23.49899323 207.7311554 22.37915039 C207.72118027 21.37821854 207.71120514 20.37728668 207.70092773 19.34602356 C207.69395197 18.04635777 207.69395197 18.04635777 207.68683529 16.7204361 C207.39018606 13.91464643 206.66647618 11.7899669 205.42677307 9.26069641 C201.50893814 6.81204958 197.13393361 6.94818896 192.63380432 6.79975891 C190.42677307 6.26069641 190.42677307 6.26069641 189.12599182 4.22163391 C188.77987854 3.25096985 188.77987854 3.25096985 188.42677307 2.26069641 C190.42677307 0.26069641 190.42677307 0.26069641 193.46315002 0.01345825 C194.76727844 0.01488327 196.07140686 0.01630829 197.41505432 0.01777649 C198.13389801 0.01587814 198.8527417 0.0139798 199.59336853 0.01202393 C201.97544678 0.00831169 204.3572218 0.01902663 206.73927307 0.03022766 C208.39072127 0.03141934 210.04217016 0.03187265 211.69361877 0.03161621 C215.15712213 0.03318186 218.62052225 0.04147757 222.08399963 0.05488586 C226.52967104 0.07187582 230.97522889 0.07570024 235.42092896 0.07494068 C238.83177276 0.07521226 242.24259161 0.08069159 245.65342712 0.08794212 C247.29293122 0.09113042 248.93243816 0.09309657 250.57194519 0.09383583 C252.86084334 0.09599769 255.14961972 0.10473857 257.43849182 0.11543274 C258.74262024 0.11924454 260.04674866 0.12305634 261.39039612 0.12698364 C264.42677307 0.26069641 264.42677307 0.26069641 266.42677307 1.26069641 C266.42677307 2.91069641 266.42677307 4.56069641 266.42677307 6.26069641 C265.63013245 6.29807922 264.83349182 6.33546204 264.01271057 6.37397766 C255.76784435 6.77980931 255.76784435 6.77980931 248.42677307 10.26069641 C246.52904469 13.27805517 246.1772651 15.59274973 246.17953491 19.12533569 C246.17534042 20.10254074 246.17114594 21.07974579 246.16682434 22.08656311 C246.17244385 23.15215454 246.17806335 24.21774597 246.18385315 25.31562805 C246.18100563 27.00639717 246.18100563 27.00639717 246.17810059 28.73132324 C246.17439257 32.46123689 246.18509717 36.19095629 246.19630432 39.92085266 C246.19749617 42.50869728 246.19794927 45.09654233 246.19769287 47.68438721 C246.19925776 53.10902307 246.20730548 58.5335886 246.22096252 63.95820618 C246.23669533 70.23051139 246.24196031 76.50275532 246.24122697 82.77507883 C246.24061671 88.80963102 246.24582976 94.84415821 246.25401878 100.87870598 C246.25720709 103.44681617 246.25917324 106.01492817 246.25991249 108.58304024 C246.26207384 112.16711142 246.27081351 115.75110477 246.2815094 119.3351593 C246.28105621 120.40277496 246.28060303 121.47039062 246.28013611 122.57035828 C246.28653358 124.03193611 246.28653358 124.03193611 246.2930603 125.52304077 C246.29473615 126.37050401 246.29641199 127.21796724 246.29813862 128.09111118 C246.34341882 130.4431748 246.34341882 130.4431748 247.42677307 133.26069641 C251.08152366 134.47894661 254.47097006 134.44206533 258.27833557 134.46382141 C259.05180328 134.46952148 259.825271 134.47522156 260.62217712 134.48109436 C262.26129289 134.4905391 263.9004276 134.49707626 265.53956604 134.50093079 C268.02184786 134.51058008 270.50328126 134.54158378 272.98536682 134.57319641 C284.04644473 134.64866315 293.11769629 134.38602499 301.58692932 126.31929016 C309.04501854 117.97446422 312.8463387 106.82792259 316.41114807 96.37397766 C316.74630432 95.67659485 317.08146057 94.97921204 317.42677307 94.26069641 C318.91177307 93.76569641 318.91177307 93.76569641 320.42677307 93.26069641 C321.41677307 93.92069641 322.40677307 94.58069641 323.42677307 95.26069641 C322.87798784 100.84770377 322.32655939 106.43444168 321.77272034 112.02095032 C321.5848254 113.91996771 321.39764264 115.81905572 321.2111969 117.71821594 C320.9424988 120.45392091 320.67120877 123.18935856 320.39942932 125.92475891 C320.31709549 126.76874237 320.23476166 127.61272583 320.14993286 128.48228455 C319.72076073 132.7756265 319.19900196 137.01193515 318.42677307 141.26069641 C319.08677307 140.60069641 319.74677307 139.94069641 320.42677307 139.26069641 C323.75834938 138.62945037 327.09340265 138.24005204 330.45802307 137.82319641 C333.53384165 137.52903442 333.53384165 137.52903442 335.42677307 135.26069641 C336.80306965 129.77600196 336.57457675 124.15013921 336.57203674 118.53291321 C336.57539536 117.46384735 336.57875397 116.39478149 336.58221436 115.2933197 C336.59169913 111.76550631 336.59366625 108.23774051 336.59474182 104.70991516 C336.59795617 102.25140361 336.60132038 99.79289225 336.60482788 97.3343811 C336.610813 92.18229224 336.61266842 87.03022014 336.61207581 81.87812805 C336.61197423 75.2876457 336.62562434 68.69727119 336.64284801 62.10681438 C336.65398563 57.02892568 336.65599447 51.95106289 336.65546608 46.87316322 C336.65664361 44.4439793 336.66105265 42.01479465 336.66879845 39.58562279 C336.6786335 36.18256019 336.67570627 32.77972983 336.66969299 29.37666321 C336.6753125 28.38051498 336.68093201 27.38436676 336.6867218 26.35803223 C336.66103569 20.61593749 336.55859107 14.67319317 334.42677307 9.26069641 C331.58372893 7.59647545 329.35062827 7.33212051 326.10255432 7.08100891 C325.30204651 7.01655579 324.5015387 6.95210266 323.67677307 6.88569641 C322.91880432 6.85733704 322.16083557 6.82897766 321.37989807 6.79975891 C319.42677307 6.26069641 319.42677307 6.26069641 318.16114807 4.22163391 C317.91880432 3.57452454 317.67646057 2.92741516 317.42677307 2.26069641 C319.92413175 -0.23666226 321.42016966 0.01371114 324.82862854 -0.02146912 C325.58176331 -0.0189917 326.33489807 -0.01651428 327.1108551 -0.01396179 C327.9047464 -0.01907272 328.6986377 -0.02418365 329.5165863 -0.02944946 C332.15599515 -0.04340668 334.79514405 -0.04238161 337.43458557 -0.04008484 C339.27669878 -0.04397353 341.11881109 -0.04830856 342.96092224 -0.05307007 C346.83645009 -0.0605491 350.71188694 -0.06023259 354.5874176 -0.05497742 C359.5116187 -0.04923497 364.43543722 -0.06597746 369.35957527 -0.08932209 C373.17418028 -0.10420251 376.98869675 -0.10491098 380.80332565 -0.10181236 C382.61547975 -0.10232024 384.42763953 -0.1074558 386.23976517 -0.11762428 C403.36749813 -0.20180234 420.92454816 0.23799344 434.23927307 12.51069641 C441.28530444 20.1664805 446.06826726 29.31187652 445.72755432 39.87397766 C444.70813631 47.96312581 440.95074107 53.71464674 435.07130432 59.21382141 C429.78060859 63.30883554 423.13717684 67.19414217 416.42677307 68.26069641 C415.76677307 67.93069641 415.10677307 67.60069641 414.42677307 67.26069641 C414.42677307 67.92069641 414.42677307 68.58069641 414.42677307 69.26069641 C414.99782776 69.32386047 415.56888245 69.38702454 416.15724182 69.45210266 C428.83902818 71.3674758 439.53971322 78.23913475 447.42677307 88.26069641 C452.72903516 96.49641778 452.79046757 106.71315658 450.83692932 116.09272766 C447.52111078 125.79569898 439.87150217 133.17791573 431.02442932 138.01850891 C417.4394373 144.51479081 404.25056418 145.5576663 389.42489624 145.50120544 C387.71185943 145.50207873 385.99882289 145.50383198 384.28578776 145.50638378 C379.60175603 145.51083706 374.91781648 145.50288151 370.23379648 145.49282765 C365.17395629 145.48416624 360.11412103 145.48711522 355.05427551 145.4886322 C346.29544665 145.48967935 337.53664766 145.48342051 328.77782631 145.47215652 C316.11414648 145.45588145 303.45048104 145.45069146 290.78679188 145.44818054 C270.2392872 145.44380659 249.69179842 145.43050562 229.14430237 145.41157532 C209.18792297 145.39320876 189.23154789 145.37905605 169.27516174 145.37055969 C168.04442253 145.37003425 166.81368331 145.3695088 165.54564897 145.36896743 C159.37120455 145.3663573 153.19676009 145.36382989 147.02231562 145.36134362 C95.82379045 145.34062046 44.62528254 145.30540309 -6.57322693 145.26069641 C-7.19822693 143.38569641 -7.19822693 143.38569641 -7.57322693 141.26069641 C-4.44537949 138.13284897 -0.79215431 138.86485704 3.48146057 138.70210266 C6.76322482 138.21027327 8.15566288 137.6638479 10.42677307 135.26069641 C11.28769633 131.93321884 11.55354048 128.80595518 11.56048584 125.37864685 C11.56475082 124.42267609 11.56901581 123.46670532 11.57341003 122.48176575 C11.57295685 121.44475525 11.57250366 120.40774475 11.57203674 119.33930969 C11.57539536 118.23791656 11.57875397 117.13652344 11.58221436 116.00175476 C11.59171184 112.36149467 11.59366684 108.72128062 11.59474182 105.08100891 C11.59795512 102.54901612 11.60131925 100.01702352 11.60482788 97.48503113 C11.61081606 92.17733759 11.61271093 86.8696612 11.61207581 81.56196594 C11.61147525 75.43795468 11.62202523 69.31403157 11.63781947 63.19004261 C11.6524999 57.28632371 11.65606309 51.38263159 11.65546608 45.47889328 C11.65664564 42.97269709 11.66106609 40.46650024 11.66879845 37.9603157 C11.67860465 34.45376028 11.67571768 30.94743133 11.66969299 27.44087219 C11.6753125 26.40791016 11.68093201 25.37494812 11.6867218 24.3106842 C11.66320223 18.91868871 11.37121868 14.31914761 9.42677307 9.26069641 C5.67189843 6.67922009 1.06679246 6.94597441 -3.36619568 6.79975891 C-5.57322693 6.26069641 -5.57322693 6.26069641 -6.87400818 4.22163391 C-7.10475037 3.57452454 -7.33549255 2.92741516 -7.57322693 2.26069641 C-4.92197376 -0.39055676 -3.70262715 0.00735077 0 0 Z M399.42677307 1.26069641 C403.42677307 2.26069641 403.42677307 2.26069641 403.42677307 2.26069641 Z M51.42677307 9.26069641 C47.23998779 14.84307679 48.27834788 23.99765094 48.2815094 30.62715149 C48.27815079 31.64598923 48.27479218 32.66482697 48.27133179 33.71453857 C48.26186289 37.06978081 48.25988071 40.42497291 48.25880432 43.78022766 C48.25558893 46.12281311 48.25222464 48.46539836 48.24871826 50.8079834 C48.24273715 55.7145077 48.24087732 60.62101442 48.24147034 65.52754211 C48.2415719 71.7984136 48.22792094 78.06917172 48.21069813 84.34001637 C48.1995511 89.17774976 48.19755196 94.01545599 48.19808006 98.85320091 C48.19690398 101.16433287 48.19250317 103.47546561 48.1847477 105.78658485 C48.17489324 109.02648874 48.17784739 112.2661495 48.18385315 115.50605774 C48.17823364 116.45028595 48.17261414 117.39451416 48.16682434 118.36735535 C48.19506567 124.39693009 48.48589396 130.50265534 50.42677307 136.26069641 C54.88313257 139.90742724 59.95524513 139.77885565 65.48927307 139.76069641 C66.27882385 139.78905579 67.06837463 139.81741516 67.8818512 139.84663391 C72.06814922 139.86067012 73.93567889 139.61413056 77.42286682 137.10444641 C81.41784523 131.43515932 80.57512368 124.42104204 80.57203674 117.7323761 C80.57539536 116.68442368 80.57875397 115.63647125 80.58221436 114.5567627 C80.59169863 111.09868681 80.59366629 107.64065949 80.59474182 104.18257141 C80.59795646 101.77129598 80.60132069 99.36002075 80.60482788 96.94874573 C80.61081306 91.89500985 80.61266844 86.84129105 80.61207581 81.78755188 C80.61197429 75.32720348 80.6256184 68.86696524 80.64284801 62.40664291 C80.65399403 57.42564902 80.6559942 52.44468153 80.65546608 47.46367645 C80.65664258 45.08276744 80.66104576 42.70185768 80.66879845 40.320961 C80.67864952 36.98276164 80.67569991 33.64479841 80.66969299 30.30659485 C80.6753125 29.33274338 80.68093201 28.35889191 80.6867218 27.35552979 C80.65903696 21.26862062 80.42068877 15.0666782 78.42677307 9.26069641 C74.21802005 5.93083005 70.1780181 5.85367662 64.92677307 5.88569641 C63.65833557 5.87796204 62.38989807 5.87022766 61.08302307 5.86225891 C57.19253337 6.28622253 54.75430955 7.2412946 51.42677307 9.26069641 Z M372.42677307 10.26069641 C372.42677307 28.74069641 372.42677307 47.22069641 372.42677307 66.26069641 C374.73677307 66.26069641 377.04677307 66.26069641 379.42677307 66.26069641 C379.42677307 65.93069641 379.42677307 65.60069641 379.42677307 65.26069641 C380.89437073 65.05766907 380.89437073 65.05766907 382.39161682 64.85054016 C390.58851971 63.56791056 397.98279978 62.1091916 403.42677307 55.26069641 C407.39620498 48.63715245 407.9517089 42.79594227 407.67677307 35.19819641 C407.6587262 34.23720032 407.64067932 33.27620422 407.62208557 32.28608704 C407.57546104 29.94320414 407.51005476 27.60251351 407.42677307 25.26069641 C406.76677307 25.26069641 406.10677307 25.26069641 405.42677307 25.26069641 C405.14833557 23.96132141 405.14833557 23.96132141 404.86427307 22.63569641 C402.9374207 18.11178214 400.64773828 15.75791667 396.42677307 13.26069641 C388.1688793 10.07908366 381.53894481 10.26069641 372.42677307 10.26069641 Z M12.42677307 14.26069641 C13.42677307 16.26069641 13.42677307 16.26069641 13.42677307 16.26069641 Z M80.42677307 15.26069641 C81.42677307 19.26069641 81.42677307 19.26069641 81.42677307 19.26069641 Z M337.42677307 15.26069641 C338.42677307 18.26069641 338.42677307 18.26069641 338.42677307 18.26069641 Z M408.42677307 36.26069641 C409.42677307 39.26069641 409.42677307 39.26069641 409.42677307 39.26069641 Z M372.42677307 75.26069641 C372.37605543 82.85954437 372.341032 90.45834865 372.31690979 98.05732727 C372.30685341 100.6423048 372.29320658 103.22727096 372.27589417 105.81221008 C372.25163036 109.52814033 372.24028623 113.24392014 372.23146057 116.95991516 C372.221138 118.11529282 372.21081543 119.27067047 372.20018005 120.46105957 C372.20002899 121.54180252 372.19987793 122.62254547 372.19972229 123.73603821 C372.19528107 124.68423935 372.19083984 125.63244049 372.18626404 126.609375 C372.45251654 129.54448699 373.04849499 131.65615701 374.42677307 134.26069641 C381.79478324 136.7166998 391.87559271 136.51776583 398.98927307 133.32319641 C405.05594242 129.71184012 409.27399519 124.56816314 411.59083557 117.92085266 C414.15930549 106.67479513 412.99081955 95.13367659 407.17677307 85.10444641 C402.45578848 78.77403526 394.97864598 76.48237074 387.42677307 75.26069641 C384.81195349 75.19295497 382.22698051 75.16569383 379.61427307 75.19819641 C378.92140198 75.20270813 378.22853088 75.20721985 377.5146637 75.21186829 C375.81866239 75.22356485 374.12270604 75.24149717 372.42677307 75.26069641 Z M80.42677307 128.26069641 C81.42677307 131.26069641 81.42677307 131.26069641 81.42677307 131.26069641 Z M337.42677307 129.26069641 C338.42677307 131.26069641 338.42677307 131.26069641 338.42677307 131.26069641 Z M12.42677307 130.26069641 C13.42677307 132.26069641 13.42677307 132.26069641 13.42677307 132.26069641 Z M129.42677307 136.26069641 C129.42677307 136.59069641 129.42677307 136.92069641 129.42677307 137.26069641 C136.35677307 137.26069641 143.28677307 137.26069641 150.42677307 137.26069641 C150.42677307 136.93069641 150.42677307 136.60069641 150.42677307 136.26069641 C143.49677307 136.26069641 136.56677307 136.26069641 129.42677307 136.26069641 Z M257.42677307 136.26069641 C257.42677307 136.59069641 257.42677307 136.92069641 257.42677307 137.26069641 C264.68677307 137.26069641 271.94677307 137.26069641 279.42677307 137.26069641 C279.42677307 136.93069641 279.42677307 136.60069641 279.42677307 136.26069641 C272.16677307 136.26069641 264.90677307 136.26069641 257.42677307 136.26069641 Z M380.42677307 136.26069641 C380.42677307 136.59069641 380.42677307 136.92069641 380.42677307 137.26069641 C383.06677307 137.26069641 385.70677307 137.26069641 388.42677307 137.26069641 C388.42677307 136.93069641 388.42677307 136.60069641 388.42677307 136.26069641 C385.78677307 136.26069641 383.14677307 136.26069641 380.42677307 136.26069641 Z M-5.57322693 140.26069641 C-5.57322693 140.59069641 -5.57322693 140.92069641 -5.57322693 141.26069641 C-2.93322693 141.26069641 -0.29322693 141.26069641 2.42677307 141.26069641 C2.42677307 140.93069641 2.42677307 140.60069641 2.42677307 140.26069641 C-0.21322693 140.26069641 -2.85322693 140.26069641 -5.57322693 140.26069641 Z M60.42677307 140.26069641 C60.42677307 140.59069641 60.42677307 140.92069641 60.42677307 141.26069641 C63.72677307 141.26069641 67.02677307 141.26069641 70.42677307 141.26069641 C70.42677307 140.93069641 70.42677307 140.60069641 70.42677307 140.26069641 C67.12677307 140.26069641 63.82677307 140.26069641 60.42677307 140.26069641 Z M189.42677307 140.26069641 C189.42677307 140.59069641 189.42677307 140.92069641 189.42677307 141.26069641 C192.39677307 141.26069641 195.36677307 141.26069641 198.42677307 141.26069641 C198.42677307 140.93069641 198.42677307 140.60069641 198.42677307 140.26069641 C195.45677307 140.26069641 192.48677307 140.26069641 189.42677307 140.26069641 Z " fill="#BC1D2B" transform="translate(528.5732269287109,85.73930358886719)"/>
<path d="M0 0 C1.20107095 49.49028245 -13.68901709 94.66605679 -48.09765625 131 C-48.79785889 131.72316406 -48.79785889 131.72316406 -49.51220703 132.4609375 C-50.55347366 133.53808631 -51.58775304 134.62201349 -52.61669922 135.7109375 C-78.70303653 163.29545118 -120.449258 184.95206143 -158.83105469 187.16308594 C-164.56192825 187.32049549 -170.27220484 187.21936237 -176 187 C-176 186.01 -176 185.02 -176 184 C-173.68359375 182.01171875 -173.68359375 182.01171875 -170.4375 179.6875 C-148.10538558 163.17575883 -131.45804608 141.79671441 -116 119 C-116.33 119.33 -116.66 119.66 -117 120 C-117.86625 120.680625 -118.7325 121.36125 -119.625 122.0625 C-122.14986039 124.14851561 -124.2597184 126.3764449 -126.375 128.875 C-129.31206458 132.31335788 -132.4239421 135.26458935 -135.875 138.1796875 C-137.30065021 139.40092463 -138.69688685 140.657291 -140.0625 141.9453125 C-150.77467095 152.0251678 -162.92956683 160.76317299 -175.5 168.375 C-176.42462036 168.93767578 -176.42462036 168.93767578 -177.36791992 169.51171875 C-180.14232034 171.13813201 -181.72538028 172 -185 172 C-185 171.01 -185 170.02 -185 169 C-185.66 169 -186.32 169 -187 169 C-187.48473678 167.31409158 -187.96248926 165.62617455 -188.4375 163.9375 C-188.83775391 162.52791016 -188.83775391 162.52791016 -189.24609375 161.08984375 C-195.75702845 134.40513208 -188.7147109 106.90313979 -175.06640625 83.72998047 C-156.06879143 52.91104763 -126.38781542 33.86881886 -91.6947937 25.5897522 C-82.41285419 23.55841146 -72.94342305 22.41336208 -63.5402832 21.09326172 C-39.63600382 17.78395366 -39.63600382 17.78395366 -17.3125 9 C-16.68923828 8.68289062 -16.06597656 8.36578125 -15.42382812 8.0390625 C-12.15444911 6.33448533 -9.18982746 4.45072761 -6.23046875 2.25 C-3 0 -3 0 0 0 Z M-190 128 C-189 130 -189 130 -189 130 Z M-190 149 C-189 151 -189 151 -189 151 Z " fill="#BA1C2B" transform="translate(353,166)"/>
<path d="M0 0 C4.74192495 2.25187304 8.75775058 2.31473593 13.8984375 2 C14.5790625 0.2984375 14.5790625 0.2984375 15.2734375 -1.4375 C16.8984375 -5 16.8984375 -5 18.8984375 -6 C19.5584375 -5.67 20.2184375 -5.34 20.8984375 -5 C22.30238732 0.93398476 22.03489572 7.34603286 21.99609375 13.41015625 C21.99397133 14.68952309 21.99397133 14.68952309 21.99180603 15.99473572 C21.98626689 18.68402816 21.9737263 21.37323328 21.9609375 24.0625 C21.95591462 25.90038941 21.9513531 27.73828015 21.94726562 29.57617188 C21.9363175 34.05081422 21.91909589 38.52539238 21.8984375 43 C20.2484375 43 18.5984375 43 16.8984375 43 C16.69089844 42.36835938 16.48335937 41.73671875 16.26953125 41.0859375 C11.18376702 26.31806981 5.92915335 14.13841588 -8.6640625 7 C-17.29530822 3.74396741 -27.693065 3.20698371 -36.3515625 6.6875 C-40.88857556 9.12917497 -43.46519005 12.09088265 -45.1015625 17 C-45.27104977 18.74488531 -45.36755813 20.49751946 -45.4140625 22.25 C-45.45144531 23.16265625 -45.48882813 24.0753125 -45.52734375 25.015625 C-44.77132013 30.31472631 -42.46361492 33.83573064 -38.4921875 37.23046875 C-36.93757813 38.19919922 -36.93757813 38.19919922 -35.3515625 39.1875 C-34.76375 39.55423828 -34.1759375 39.92097656 -33.5703125 40.29882812 C-27.60855332 43.90569243 -21.35034212 46.92891089 -15.1015625 50 C2.77350415 58.78581594 23.13555467 69.19159175 30.0234375 89.28125 C32.47968425 99.72029867 32.09377567 111.48546058 26.8984375 121 C19.33641216 132.96994166 8.65315287 140.97705298 -4.9921875 144.8125 C-20.41211631 147.98459964 -34.54717065 144.69034911 -48.9453125 138.98828125 C-53.29435533 137.62651413 -56.5910398 137.33255974 -60.7890625 139.1875 C-63.35711295 141.2002963 -64.62028843 143.11541365 -66.1015625 146 C-67.4215625 145.67 -68.7415625 145.34 -70.1015625 145 C-70.1015625 144.01 -70.1015625 143.02 -70.1015625 142 C-137.4215625 142 -204.7415625 142 -274.1015625 142 C-274.4315625 140.68 -274.7615625 139.36 -275.1015625 138 C-271.97371506 134.87215256 -268.32048988 135.60416063 -264.046875 135.44140625 C-260.80774535 134.9559664 -259.41781419 134.27854527 -257.1015625 132 C-256.12994789 129.08515617 -255.97375398 127.22627069 -255.96784973 124.19314575 C-255.96358475 123.20337738 -255.95931976 122.21360901 -255.95492554 121.19384766 C-255.95560532 119.56672852 -255.95560532 119.56672852 -255.95629883 117.90673828 C-255.95294022 116.76341034 -255.9495816 115.6200824 -255.94612122 114.44210815 C-255.93659946 110.65149864 -255.93466748 106.86093324 -255.93359375 103.0703125 C-255.93038201 100.44098899 -255.927018 97.81166566 -255.92350769 95.18234253 C-255.91711117 89.66599235 -255.91562535 84.14965417 -255.91625977 78.63330078 C-255.91686039 72.26049259 -255.90631142 65.8877691 -255.8905161 59.51498234 C-255.87585677 53.38166272 -255.87227192 47.24838369 -255.87286949 41.11504745 C-255.87168785 38.50671925 -255.86725582 35.89839045 -255.85953712 33.29007339 C-255.84975797 29.64399405 -255.85260724 25.99813353 -255.85864258 22.35205078 C-255.85021332 20.73100433 -255.85021332 20.73100433 -255.84161377 19.07720947 C-255.84580826 18.08180145 -255.85000275 17.08639343 -255.85432434 16.06082153 C-255.85350719 14.7683208 -255.85350719 14.7683208 -255.85267353 13.44970894 C-256.13782708 10.64306305 -256.86127996 8.52832807 -258.1015625 6 C-262.01939743 3.55135317 -266.39440196 3.68749255 -270.89453125 3.5390625 C-273.1015625 3 -273.1015625 3 -274.40234375 0.9609375 C-274.74845703 -0.00972656 -274.74845703 -0.00972656 -275.1015625 -1 C-273.1015625 -3 -273.1015625 -3 -270.06518555 -3.24723816 C-268.76105713 -3.24581314 -267.45692871 -3.24438812 -266.11328125 -3.24291992 C-265.39443756 -3.24481827 -264.67559387 -3.24671661 -263.93496704 -3.24867249 C-261.55288879 -3.25238472 -259.17111377 -3.24166979 -256.7890625 -3.23046875 C-255.1376143 -3.22927707 -253.48616541 -3.22882376 -251.8347168 -3.2290802 C-248.37121344 -3.22751456 -244.90781332 -3.21921884 -241.44433594 -3.20581055 C-236.99866453 -3.18882059 -232.55310668 -3.18499617 -228.10740662 -3.18575573 C-224.69656281 -3.18548415 -221.28574396 -3.18000482 -217.87490845 -3.17275429 C-216.23540435 -3.16956599 -214.59589741 -3.16759984 -212.95639038 -3.16686058 C-210.66749223 -3.16469872 -208.37871585 -3.15595784 -206.08984375 -3.14526367 C-204.78571533 -3.14145187 -203.48158691 -3.13764008 -202.13793945 -3.13371277 C-199.1015625 -3 -199.1015625 -3 -197.1015625 -2 C-197.1015625 -0.35 -197.1015625 1.3 -197.1015625 3 C-198.27912109 3.07347656 -198.27912109 3.07347656 -199.48046875 3.1484375 C-205.29178553 3.5620036 -210.5805055 4.11782148 -216.1015625 6 C-216.98422765 9.03796243 -217.22715347 11.7435721 -217.22854614 14.90260315 C-217.23136597 15.88822235 -217.23418579 16.87384155 -217.23709106 17.889328 C-217.23506683 18.96427017 -217.2330426 20.03921234 -217.23095703 21.14672852 C-217.23270935 22.2836615 -217.23446167 23.42059448 -217.23626709 24.59197998 C-217.24067245 28.35430421 -217.2377524 32.11658153 -217.234375 35.87890625 C-217.23504837 38.48917144 -217.23601867 41.09943657 -217.23727417 43.70970154 C-217.23909275 49.1813915 -217.23669745 54.65306795 -217.23193359 60.12475586 C-217.22648885 66.45158932 -217.22825642 72.77839056 -217.23376 79.10522324 C-217.23884296 85.1920957 -217.23830737 91.27895386 -217.23537827 97.36582756 C-217.23470984 99.95626772 -217.23553449 102.5467087 -217.23785782 105.1371479 C-217.24038871 108.75234298 -217.23653761 112.36747561 -217.23095703 115.98266602 C-217.23298126 117.05963242 -217.23500549 118.13659882 -217.23709106 119.24620056 C-217.23427124 120.22899994 -217.23145142 121.21179932 -217.22854614 122.22438049 C-217.22816912 123.07921807 -217.22779209 123.93405565 -217.22740364 124.8147974 C-217.18662234 127.18009119 -217.18662234 127.18009119 -216.1015625 130 C-212.51071811 131.19694813 -209.20843716 131.18110812 -205.46875 131.203125 C-204.3418425 131.21167511 -204.3418425 131.21167511 -203.19216919 131.22039795 C-201.60013228 131.22984183 -200.00807588 131.23637951 -198.41601562 131.24023438 C-196.00615142 131.24988155 -193.59716198 131.28088492 -191.1875 131.3125 C-179.5252594 131.39389567 -169.8702513 130.47144511 -161.1015625 122 C-155.21120893 114.99825897 -152.14981301 106.53027638 -149.0078125 98.046875 C-148.6675 97.14453125 -148.3271875 96.2421875 -147.9765625 95.3125 C-147.68523437 94.50425781 -147.39390625 93.69601563 -147.09375 92.86328125 C-146.1015625 91 -146.1015625 91 -143.1015625 90 C-142.1115625 90.66 -141.1215625 91.32 -140.1015625 92 C-140.64980201 97.46296482 -141.20124085 102.92559378 -141.75561523 108.38793945 C-141.94366478 110.24527294 -142.13084786 112.10269437 -142.31713867 113.96020508 C-142.58543464 116.63386383 -142.85686997 119.30718829 -143.12890625 121.98046875 C-143.21124008 122.80773972 -143.29357391 123.63501068 -143.37840271 124.48735046 C-143.77715025 128.37692706 -144.2350501 132.17992782 -145.1015625 136 C-143.01745592 135.91266027 -140.93421581 135.80447722 -138.8515625 135.6875 C-137.11132812 135.60048828 -137.11132812 135.60048828 -135.3359375 135.51171875 C-131.89379872 134.96712916 -130.41688908 134.58544801 -128.1015625 132 C-126.7527974 126.46074486 -126.95376515 120.82885194 -126.95629883 115.16455078 C-126.95294022 114.08412506 -126.9495816 113.00369934 -126.94612122 111.89053345 C-126.93663658 108.32544804 -126.9346694 104.76040973 -126.93359375 101.1953125 C-126.93037963 98.71198507 -126.92701544 96.22865784 -126.92350769 93.74533081 C-126.91752278 88.54196738 -126.91566716 83.33862054 -126.91625977 78.13525391 C-126.91636139 71.47516069 -126.90270559 64.81521138 -126.88548756 58.15513802 C-126.87435756 53.02667758 -126.87234086 47.89824285 -126.87286949 42.76977158 C-126.87169103 40.31464139 -126.86727676 37.85951051 -126.85953712 35.40439224 C-126.84971652 31.96759871 -126.85262353 28.53103569 -126.85864258 25.09423828 C-126.85302307 24.08514404 -126.84740356 23.0760498 -126.84161377 22.03637695 C-126.86683798 16.35520724 -127.33103728 11.4184649 -129.1015625 6 C-133.18363148 3.06601292 -139.18932373 3.36245645 -144.1015625 3 C-145.0915625 0.525 -145.0915625 0.525 -146.1015625 -2 C-143.17503342 -3.46326454 -140.58071411 -3.14350163 -137.31274414 -3.16113281 C-136.61501389 -3.16609772 -135.91728363 -3.17106262 -135.19841003 -3.17617798 C-132.88616965 -3.19080458 -130.57399783 -3.19760187 -128.26171875 -3.203125 C-126.65750628 -3.20887539 -125.05329384 -3.21463314 -123.44908142 -3.22039795 C-120.08397094 -3.2309089 -116.71888436 -3.23675116 -113.35375977 -3.24023438 C-109.0381137 -3.24572385 -104.72278238 -3.26976092 -100.40723515 -3.29820633 C-97.09328787 -3.31681206 -93.77941678 -3.32203716 -90.46542168 -3.32357025 C-88.87417311 -3.32660125 -87.28292603 -3.33464482 -85.69172859 -3.34775543 C-83.46749897 -3.3647758 -81.24404338 -3.36294616 -79.01977539 -3.35644531 C-77.75339737 -3.36009094 -76.48701935 -3.36373657 -75.18226624 -3.36749268 C-72.1015625 -3 -72.1015625 -3 -70.16917419 -1.47772217 C-69.81686234 -0.99007385 -69.46455048 -0.50242554 -69.1015625 0 C-69.4315625 0.99 -69.7615625 1.98 -70.1015625 3 C-71.20564453 3.07347656 -71.20564453 3.07347656 -72.33203125 3.1484375 C-73.79576172 3.26058594 -73.79576172 3.26058594 -75.2890625 3.375 C-76.25199219 3.44460937 -77.21492188 3.51421875 -78.20703125 3.5859375 C-82.39239026 4.13097723 -82.39239026 4.13097723 -86.1015625 6 C-89.32073393 12.40430598 -89.52845421 18.96900682 -89.47387695 25.99243164 C-89.47752762 27.0537883 -89.48117828 28.11514496 -89.48493958 29.20866394 C-89.4929995 32.69266102 -89.47947342 36.17618634 -89.46484375 39.66015625 C-89.46432464 42.09435526 -89.46484432 44.5285547 -89.46635437 46.9627533 C-89.46626485 52.05409029 -89.45587631 57.14526827 -89.43774414 62.23657227 C-89.41504591 68.75198303 -89.41451739 75.26716192 -89.42126179 81.78260136 C-89.42460811 86.80555775 -89.41795932 91.82846159 -89.40813255 96.851408 C-89.40429265 99.253501 -89.40312731 101.65559985 -89.4047184 104.05769539 C-89.40509056 107.41756394 -89.39242659 110.77713863 -89.3762207 114.13696289 C-89.37869812 115.12264252 -89.38117554 116.10832214 -89.38372803 117.12387085 C-89.34077661 122.72284971 -89.08391883 127.72620966 -87.1015625 133 C-81.2861773 135.60243236 -81.2861773 135.60243236 -71.1015625 136 C-71.1015625 121.15 -71.1015625 106.3 -71.1015625 91 C-69.1015625 90 -69.1015625 90 -67.15234375 90.41015625 C-63.85487033 92.96648326 -63.39464814 96.52870453 -62.2890625 100.4375 C-58.17443317 113.71312617 -51.65138121 124.68210733 -38.9765625 131.375 C-32.65681312 134.38039193 -26.5061 135.34337897 -19.6015625 135.3125 C-18.88097656 135.32861328 -18.16039062 135.34472656 -17.41796875 135.36132812 C-10.17120925 135.36788035 -4.39179001 133.14327674 0.8984375 128 C4.63766567 122.71350501 4.66076707 117.2372419 3.8984375 111 C2.08570129 104.09433825 -1.34681022 100.06866221 -7.1015625 96 C-11.34857444 93.55338731 -15.71488646 91.37132212 -20.1015625 89.1875 C-22.53339822 87.95202145 -24.96029503 86.70700536 -27.38671875 85.4609375 C-28.5483252 84.86506836 -29.70993164 84.26919922 -30.90673828 83.65527344 C-45.88795653 75.89334009 -59.453339 66.97002431 -68.1015625 52 C-68.45992187 51.38125 -68.81828125 50.7625 -69.1875 50.125 C-72.97913656 42.05472769 -72.25072268 31.37783635 -69.4765625 23.125 C-63.84177069 9.87244086 -55.20799779 1.931234 -42.1171875 -3.87109375 C-27.97139066 -9.16660578 -13.19660414 -6.27942502 0 0 Z M-126.1015625 12 C-125.1015625 14 -125.1015625 14 -125.1015625 14 Z M-126.1015625 126 C-125.1015625 128 -125.1015625 128 -125.1015625 128 Z M-206.1015625 133 C-206.1015625 133.33 -206.1015625 133.66 -206.1015625 134 C-198.8415625 134 -191.5815625 134 -184.1015625 134 C-184.1015625 133.67 -184.1015625 133.34 -184.1015625 133 C-191.3615625 133 -198.6215625 133 -206.1015625 133 Z M-273.1015625 137 C-273.1015625 137.33 -273.1015625 137.66 -273.1015625 138 C-270.4615625 138 -267.8215625 138 -265.1015625 138 C-265.1015625 137.67 -265.1015625 137.34 -265.1015625 137 C-267.7415625 137 -270.3815625 137 -273.1015625 137 Z M-145.1015625 137 C-145.1015625 137.33 -145.1015625 137.66 -145.1015625 138 C-142.1315625 138 -139.1615625 138 -136.1015625 138 C-136.1015625 137.67 -136.1015625 137.34 -136.1015625 137 C-139.0715625 137 -142.0415625 137 -145.1015625 137 Z M-78.1015625 137 C-78.1015625 137.33 -78.1015625 137.66 -78.1015625 138 C-75.4615625 138 -72.8215625 138 -70.1015625 138 C-70.1015625 137.67 -70.1015625 137.34 -70.1015625 137 C-72.7415625 137 -75.3815625 137 -78.1015625 137 Z M-22.1015625 137 C-22.1015625 137.33 -22.1015625 137.66 -22.1015625 138 C-20.1215625 138 -18.1415625 138 -16.1015625 138 C-16.1015625 137.67 -16.1015625 137.34 -16.1015625 137 C-18.0815625 137 -20.0615625 137 -22.1015625 137 Z " fill="#BC1D2B" transform="translate(1249.1015625,89)"/>
<path d="M0 0 C1.1228389 -0.00807175 2.2456778 -0.01614349 3.40254211 -0.02445984 C5.78209912 -0.03827202 8.16167571 -0.04900695 10.54125977 -0.05688477 C12.94105968 -0.06833004 15.34083568 -0.08866124 17.74047852 -0.1184082 C64.73568826 -0.70004013 104.75695825 18.07696341 138.48828125 50.23828125 C139.26816406 50.9653125 140.04804688 51.69234375 140.8515625 52.44140625 C164.84538153 75.45501598 186.74847636 112.63690047 189.48828125 146.23828125 C186.22301346 150.42190561 181.88815598 153.3327036 177.48828125 156.23828125 C176.82828125 156.23828125 176.16828125 156.23828125 175.48828125 156.23828125 C173.18555246 149.75906376 171.4486736 143.2524684 169.92578125 136.55078125 C160.64808725 95.96446043 135.97758025 61.75628591 100.81542969 39.66650391 C63.19433529 16.57760313 18.13174945 9.75289383 -24.81640625 20 C-52.93697639 27.20332767 -77.57118931 41.22105557 -98.51171875 61.23828125 C-99.23230469 61.89570312 -99.95289063 62.553125 -100.6953125 63.23046875 C-112.43128869 74.31793288 -121.18405142 87.95688054 -128.51171875 102.23828125 C-128.98883301 103.15577148 -128.98883301 103.15577148 -129.47558594 104.09179688 C-146.3826248 136.98720582 -150.82423353 176.26574553 -142.51171875 212.23828125 C-142.27243652 213.29378174 -142.27243652 213.29378174 -142.02832031 214.37060547 C-136.12284907 239.63038027 -124.20152327 262.48710769 -107.51171875 282.23828125 C-106.36896484 283.61113281 -106.36896484 283.61113281 -105.203125 285.01171875 C-99.87271043 291.18777842 -93.99771274 296.30622332 -87.51171875 301.23828125 C-86.98449219 301.64046875 -86.45726563 302.04265625 -85.9140625 302.45703125 C-64.18257023 318.89693084 -40.09960788 328.5903529 -13.51171875 334.23828125 C-13.51171875 334.89828125 -13.51171875 335.55828125 -13.51171875 336.23828125 C-12.52171875 336.23828125 -11.53171875 336.23828125 -10.51171875 336.23828125 C-9.67185791 338.17296067 -8.84003848 340.11113254 -8.01171875 342.05078125 C-7.54765625 343.12972656 -7.08359375 344.20867187 -6.60546875 345.3203125 C-5.51171875 348.23828125 -5.51171875 348.23828125 -5.51171875 351.23828125 C-43.90098915 350.46769371 -80.43780948 328.86230955 -107.94921875 303.55078125 C-108.50432129 303.0405542 -109.05942383 302.53032715 -109.63134766 302.00463867 C-126.78310724 285.89042924 -138.88335 266.240716 -148.94921875 245.17578125 C-149.26737549 244.50998047 -149.58553223 243.84417969 -149.91333008 243.15820312 C-153.5280378 235.36639169 -155.91072748 227.20454506 -158.13671875 218.92578125 C-158.35328125 218.16072266 -158.56984375 217.39566406 -158.79296875 216.60742188 C-162.24733157 203.7388542 -161.78622818 190.26163051 -161.86181641 177.03369141 C-161.87827824 174.93787455 -161.90543673 172.84211153 -161.94384766 170.74658203 C-162.28837454 151.73768585 -159.65987378 134.02326514 -152.88671875 116.17578125 C-152.55607422 115.28713379 -152.22542969 114.39848633 -151.88476562 113.48291016 C-146.27155189 98.91882681 -138.77617317 84.81272033 -129.51171875 72.23828125 C-129.12612793 71.70750977 -128.74053711 71.17673828 -128.34326172 70.62988281 C-113.53212055 50.39633802 -95.0607595 34.84071777 -73.51171875 22.23828125 C-72.90779297 21.88137207 -72.30386719 21.52446289 -71.68164062 21.15673828 C-54.92724546 11.36801509 -36.48114917 5.1085116 -17.51171875 1.23828125 C-16.67205566 1.05942383 -15.83239258 0.88056641 -14.96728516 0.69628906 C-9.97960516 0.03521179 -5.02661472 0.03474307 0 0 Z M-159.51171875 143.23828125 C-158.51171875 145.23828125 -158.51171875 145.23828125 -158.51171875 145.23828125 Z M-160.51171875 149.23828125 C-159.51171875 151.23828125 -159.51171875 151.23828125 -159.51171875 151.23828125 Z " fill="#BB1C2B" transform="translate(161.51171875,-0.23828125)"/>
<path d="M0 0 C0.80349884 -0.0049649 1.60699768 -0.00992981 2.43484497 -0.01504517 C5.11208949 -0.02972774 7.78927443 -0.03648493 10.46655273 -0.04199219 C12.33251446 -0.04774624 14.19847617 -0.05350394 16.06443787 -0.05926514 C19.99299393 -0.06979753 23.92152944 -0.07562302 27.85009766 -0.07910156 C32.84268215 -0.08453879 37.83498729 -0.10845332 42.82748508 -0.13707352 C46.69269036 -0.1558788 50.55783141 -0.16091528 54.42307854 -0.16243744 C56.26036007 -0.16543312 58.09764133 -0.17335499 59.9348774 -0.18662262 C78.10471274 -0.30828103 94.26331901 0.42912111 108.15014648 13.47363281 C116.05299768 21.75414239 118.80901673 29.46262125 118.66967773 40.77441406 C117.83640107 49.27383605 113.31591909 55.07259814 106.88452148 60.40332031 C101.78851191 63.92050484 96.18842849 66.21087214 90.33764648 68.16113281 C91.52100586 68.63421875 92.70436523 69.10730469 93.92358398 69.59472656 C106.32365711 74.71584002 117.32113349 80.47128225 123.33764648 93.16113281 C126.83240552 101.98123896 126.17953157 110.90539927 122.66577148 119.59082031 C120.51017019 123.76254282 117.70440548 126.92276717 114.33764648 130.16113281 C113.79108398 130.70511719 113.24452148 131.24910156 112.68139648 131.80957031 C98.2139518 145.25337505 78.03282909 145.76517027 59.42749023 145.55175781 C57.47881152 145.54427482 55.53012516 145.53859166 53.58143616 145.53460693 C48.51303427 145.51951233 43.44510886 145.48037502 38.37689209 145.43579102 C33.18093303 145.39448427 27.98489514 145.37652119 22.78881836 145.35644531 C12.63822119 145.31386098 2.48797383 145.24581208 -7.66235352 145.16113281 C-7.66235352 143.18113281 -7.66235352 141.20113281 -7.66235352 139.16113281 C-6.85411133 139.14695313 -6.04586914 139.13277344 -5.21313477 139.11816406 C-3.61018555 139.04662109 -3.61018555 139.04662109 -1.97485352 138.97363281 C-0.91911133 138.93882812 0.13663086 138.90402344 1.22436523 138.86816406 C5.48611801 137.90031306 6.72915039 136.68948211 9.33764648 133.16113281 C10.07471024 129.359883 9.98971329 125.61046003 9.93701172 121.74902344 C9.94095444 120.59564987 9.94489716 119.44227631 9.94895935 118.25395203 C9.95567232 114.44132058 9.92649787 110.62988614 9.89624023 106.81738281 C9.89199022 104.16847916 9.8895107 101.51962877 9.88917542 98.87072754 C9.8845504 93.31909987 9.8609306 87.76781563 9.82470703 82.21630859 C9.78297518 75.80367107 9.76539199 69.39134267 9.76208729 62.97857714 C9.7588309 56.80250242 9.74404214 50.62652084 9.72209358 44.45048523 C9.71320941 41.82542045 9.70648037 39.20034748 9.70193291 36.57527161 C9.69289616 32.90778823 9.67050934 29.24063595 9.64404297 25.57324219 C9.6433783 24.48633591 9.64271362 23.39942963 9.64202881 22.27958679 C9.63205368 21.27865494 9.62207855 20.27772308 9.61180115 19.24645996 C9.60715064 18.3800161 9.60250013 17.51357224 9.5977087 16.6208725 C9.30090545 13.81362603 8.58163123 11.6902214 7.33764648 9.16113281 C3.1426705 6.61872313 -1.86674404 6.55815495 -6.66235352 6.16113281 C-7.32235352 4.51113281 -7.98235352 2.86113281 -8.66235352 1.16113281 C-6.67501015 -0.82621055 -2.72028949 0.00396942 0 0 Z M73.33764648 1.16113281 C77.33764648 2.16113281 77.33764648 2.16113281 77.33764648 2.16113281 Z M46.33764648 10.16113281 C46.33764648 27.98113281 46.33764648 45.80113281 46.33764648 64.16113281 C62.41607542 64.45094895 62.41607542 64.45094895 75.40014648 56.72363281 C80.77687528 50.69245731 81.67242513 43.60326417 81.55249023 35.72753906 C80.89733688 27.90143448 79.47050204 20.38058435 73.33764648 15.16113281 C64.22832831 10.5239346 56.82512573 10.16113281 46.33764648 10.16113281 Z M11.33764648 22.16113281 C11.33764648 56.15113281 11.33764648 90.14113281 11.33764648 125.16113281 C11.66764648 125.16113281 11.99764648 125.16113281 12.33764648 125.16113281 C12.33764648 91.17113281 12.33764648 57.18113281 12.33764648 22.16113281 C12.00764648 22.16113281 11.67764648 22.16113281 11.33764648 22.16113281 Z M81.33764648 31.16113281 C82.33764648 33.16113281 82.33764648 33.16113281 82.33764648 33.16113281 Z M81.33764648 42.16113281 C82.33764648 44.16113281 82.33764648 44.16113281 82.33764648 44.16113281 Z M46.33764648 65.16113281 C46.33764648 65.49113281 46.33764648 65.82113281 46.33764648 66.16113281 C48.64764648 66.16113281 50.95764648 66.16113281 53.33764648 66.16113281 C53.33764648 65.83113281 53.33764648 65.50113281 53.33764648 65.16113281 C51.02764648 65.16113281 48.71764648 65.16113281 46.33764648 65.16113281 Z M46.33764648 75.16113281 C46.23631936 83.06303978 46.16621134 90.96477954 46.11791992 98.8671875 C46.10004748 101.55617747 46.07220174 104.24479107 46.03588867 106.93359375 C45.98743033 110.79600842 45.96469022 114.65784489 45.94702148 118.52050781 C45.92637634 119.72479431 45.9057312 120.92908081 45.88446045 122.16986084 C45.88415833 123.29072083 45.8838562 124.41158081 45.88354492 125.56640625 C45.87466248 126.55235779 45.86578003 127.53830933 45.85662842 128.55413818 C46.47866784 131.92543243 47.64588424 133.09659765 50.33764648 135.16113281 C53.07105639 135.56741013 55.30425725 135.73471303 58.02514648 135.66113281 C58.7412207 135.64687256 59.45729492 135.6326123 60.19506836 135.61791992 C68.49420219 135.28779798 73.77992744 133.06172522 79.71264648 127.16113281 C85.45539471 120.14603917 86.67580659 112.48696098 86.27514648 103.59863281 C85.40124638 95.68603733 83.4094245 86.72692933 77.33764648 81.16113281 C69.70398262 76.22272612 61.99456571 75.05151611 53.03295898 75.11425781 C51.14988037 75.12440918 51.14988037 75.12440918 49.22875977 75.13476562 C48.27469238 75.1434668 47.320625 75.15216797 46.33764648 75.16113281 Z M86.33764648 101.16113281 C87.33764648 104.16113281 87.33764648 104.16113281 87.33764648 104.16113281 Z M86.33764648 110.16113281 C87.33764648 112.16113281 87.33764648 112.16113281 87.33764648 112.16113281 Z M53.33764648 136.16113281 C53.33764648 136.49113281 53.33764648 136.82113281 53.33764648 137.16113281 C56.30764648 137.16113281 59.27764648 137.16113281 62.33764648 137.16113281 C62.33764648 136.83113281 62.33764648 136.50113281 62.33764648 136.16113281 C59.36764648 136.16113281 56.39764648 136.16113281 53.33764648 136.16113281 Z " fill="#BB1C2B" transform="translate(401.662353515625,85.8388671875)"/>
<path d="M0 0 C10.50888486 0.05912172 18.51398595 1.23631831 26.71484375 8.265625 C33.25828356 15.53611368 36.03743793 22.22765203 35.8671875 32.12109375 C35.24109919 40.93449072 32.45239875 46.85991158 25.96484375 52.953125 C18.25980089 59.44082838 9.66405989 60.29746694 -0.11328125 60.59375 C-0.83 60.48546875 -1.54671875 60.3771875 -2.28515625 60.265625 C-4.51880513 56.91515168 -4.53748871 55.8211287 -4.54394531 51.90795898 C-4.55024963 50.8134996 -4.55655396 49.71904022 -4.56304932 48.59141541 C-4.55900085 47.41011551 -4.55495239 46.22881561 -4.55078125 45.01171875 C-4.5526947 43.79992447 -4.55460815 42.58813019 -4.55657959 41.33961487 C-4.55794139 38.77661939 -4.55424535 36.21361701 -4.54589844 33.65063477 C-4.53518993 29.71550096 -4.54579901 25.78082276 -4.55859375 21.84570312 C-4.55727234 19.35937399 -4.55471032 16.87304513 -4.55078125 14.38671875 C-4.55482971 13.20339462 -4.55887817 12.0200705 -4.56304932 10.80088806 C-4.556745 9.70958084 -4.55044067 8.61827362 -4.54394531 7.49389648 C-4.54155853 6.0485276 -4.54155853 6.0485276 -4.53912354 4.57395935 C-4.18305284 1.33759676 -3.23653878 0.37621305 0 0 Z " fill="#BC1D2C" transform="translate(165.28515625,106.734375)"/>
<path d="M0 0 C10.28322831 0.08542915 17.98039626 2.68907278 25.9375 9.3125 C30.85838025 14.39419333 32.87536155 19.65206063 34.9375 26.3125 C33.98230469 27.12332031 33.02710938 27.93414062 32.04296875 28.76953125 C21.10814772 38.10693978 10.53989315 47.36911181 2.28393555 59.25 C1.12890625 60.85546875 1.12890625 60.85546875 -1.0625 63.3125 C-5.0625 63.3125 -5.0625 63.3125 -7.28369141 61.60424805 C-10.07006505 56.44796533 -9.59292844 51.41254698 -9.5234375 45.64453125 C-9.52252106 44.41337082 -9.52160461 43.18221039 -9.5206604 41.91374207 C-9.51462505 39.31558366 -9.49888125 36.7174322 -9.47412109 34.11938477 C-9.43753863 30.12921348 -9.43310224 26.14070918 -9.43359375 22.15039062 C-9.42376555 19.62759609 -9.41210985 17.10480788 -9.3984375 14.58203125 C-9.39621185 13.38310745 -9.39398621 12.18418365 -9.39169312 10.94892883 C-9.37893341 9.84405624 -9.36617371 8.73918365 -9.35302734 7.60083008 C-9.34540375 6.62551834 -9.33778015 5.6502066 -9.32992554 4.64533997 C-8.70009955 -0.84883704 -4.543304 0.01364356 0 0 Z " fill="#BC1D2B" transform="translate(170.0625,173.6875)"/>
<path d="M0 0 C15.51 0 31.02 0 47 0 C47 0.33 47 0.66 47 1 C31.49 1 15.98 1 0 1 C0 0.67 0 0.34 0 0 Z " fill="#BA1C2B" transform="translate(111,246)"/>
<path d="M0 0 C0.33 0 0.66 0 1 0 C1 4.29 1 8.58 1 13 C0.67 13 0.34 13 0 13 C0 8.71 0 4.42 0 0 Z " fill="#BA1C2B" transform="translate(27,170)"/>
<path d="M0 0 C4.29 0 8.58 0 13 0 C13 0.33 13 0.66 13 1 C8.71 1 4.42 1 0 1 C0 0.67 0 0.34 0 0 Z " fill="#BA1C2B" transform="translate(170,27)"/>
<path d="" fill="#BA1C2B" transform="translate(0,0)"/>
<path d="" fill="#BA1C2B" transform="translate(0,0)"/>
<path d="" fill="#BA1C2B" transform="translate(0,0)"/>
<path d="" fill="#BA1C2B" transform="translate(0,0)"/>
<path d="" fill="#BA1C2B" transform="translate(0,0)"/>
</svg>
